<svg width="40" height="40" viewBox="0 0 40 40" fill="none" xmlns="http://www.w3.org/2000/svg">
<path d="M37.0367 26.2799L36.6617 24.4049H32.4717L31.805 26.2665L28.4467 26.2732C30.6056 21.0854 32.2078 17.2426 33.2533 14.7449C33.5267 14.0915 34.0117 13.7582 34.7267 13.7632C35.2733 13.7676 36.1656 13.7682 37.4033 13.7649L40 26.2749L37.0367 26.2799ZM33.4133 21.8365H36.115L35.1067 17.1365L33.4133 21.8365ZM11.77 13.7615L15.1467 13.7649L9.92667 26.2815L6.50833 26.2782C5.64875 22.9721 4.79986 19.6632 3.96167 16.3515C3.795 15.6915 3.465 15.2299 2.83 15.0115C2.26222 14.8171 1.31889 14.5165 0 14.1099V13.7649H5.395C6.32833 13.7649 6.87333 14.2165 7.04833 15.1432C7.225 16.0721 7.66944 18.4354 8.38167 22.2332L11.77 13.7615ZM19.7867 13.7649L17.1183 26.2799L13.9033 26.2749L16.5667 13.7615L19.7867 13.7649ZM26.3033 13.5332C27.265 13.5332 28.4767 13.8332 29.1733 14.1099L28.61 16.7032C27.98 16.4499 26.9433 16.1082 26.0717 16.1199C24.805 16.1415 24.0217 16.6732 24.0217 17.1832C24.0217 18.0132 25.3817 18.4315 26.7817 19.3382C28.3783 20.3715 28.59 21.2999 28.57 22.3099C28.5483 24.4015 26.7817 26.4665 23.055 26.4665C21.355 26.4415 20.7417 26.2999 19.355 25.8065L19.9417 23.0999C21.3533 23.6899 21.9517 23.8782 23.1583 23.8782C24.2633 23.8782 25.2117 23.4315 25.22 22.6532C25.2267 22.0999 24.8867 21.8249 23.6467 21.1415C22.4067 20.4582 20.6667 19.5099 20.69 17.6049C20.7183 15.1682 23.0267 13.5332 26.3033 13.5332Z" fill="black"/>
</svg>
